<?xml version="1.0" encoding="UTF-8"?>
<svg id="Layer_1" xmlns="http://www.w3.org/2000/svg" xmlns:xlink="http://www.w3.org/1999/xlink" version="1.1" viewBox="0 0 6352 1435.1">
  <!-- Generator: Adobe Illustrator 29.3.0, SVG Export Plug-In . SVG Version: 2.1.0 Build 146)  -->
  <defs>
    <style>
      .st0 {
        fill: #70716a;
      }

      .st1 {
        fill: #650000;
      }

      .st2 {
        fill: #6d194e;
      }

      .st3 {
        fill: #fff;
      }

      .st4 {
        opacity: .4;
      }

      .st5 {
        opacity: .3;
      }

      .st6 {
        fill: #edc18e;
      }
    </style>
  </defs>
  <g>
    <path class="st6" d="M919.7,1334s-380.9,173.1-664.4,25.4C-30.7,1210.4-26,699.5,93.4,518.7c124.8-188.9,263.7-230.2,356.2-301.1,92.6-71,92.5-201.4,92.5-201.4,0,0,64.6,59,83.1,122.5,0,0,96.5-62,134.3-121.5,0,0,57.2,78.4,47.1,135.2,0,0,424.7,68.9,535.2,417.7,104.5,329.8,12.2,598.1-422.2,763.9Z"/>
    <g class="st4">
      <path class="st3" d="M93.4,518.7s105-95.4,211.9-162.3c106.9-66.9,167.3-92.9,206-135.4,38.6-42.5,45.4-109.9,53.8-111.5s26.1,37.9,33.1,70.6c15.6,17.1,106.1-35,151.5-88.2,11.5-1.1,17.9,48.8,15.5,80.8-2.4,32.1,21.6,31.3,58,37.9s301.7,68.2,454.1,226.2c0,0-34-80.1-180.2-170-146.2-89.9-271.4-110.7-271.4-110.7,0,0-14.9-2.5-16.4-9-1.4-6.5-5-81.3-51.2-127.6,0,0-66.3,79.5-129.8,113.9l-6.1-4.2s-21.2-70.5-80.1-109.7l-2.7,28.5s-6.2,135-139.4,203.2-230.7,152.6-306.6,267.5Z"/>
    </g>
    <g>
      <path class="st3" d="M812.8,789.9c-21.9-55.4-35.6-177.2,116.3-212.4,128.5-28,216.4-9.6,270.1,13.1-54-116.4-150.2-191.1-288.4-183.2-216.2,12.4-326.6,194.8-326.6,194.8-138.8-71.6-385.8-45.9-453.4,134.5-24.2,64.6-31.5,153.6-12.4,241.4,18.4-44.1,53.5-98.3,120.7-148.2,146.9-109.3,275.8-16.3,292.4,70.2,16.6,86.5-26.2,158.9-111.8,216.8-51.3,34.7-64.1,98.1-66.2,143.4,49.7,18.8,107.9,29.9,175.9,30.4,346.3,2.6,638.6-174.2,706.4-373.6-30.4-20.8-89.8-45.6-198.9-35.2-168.2,16-202.2-36.5-224.1-91.9Z"/>
      <path class="st0" d="M1199.2,590.6c-53.7-22.7-141.6-41.1-270.1-13.1-151.9,35.2-138.2,157.1-116.3,212.4,21.9,55.4,55.9,107.9,224.1,91.9,109.2-10.4,168.5,14.4,198.9,35.2,10.9-32,16-64.5,14.6-97-3.6-84.8-20.7-163.7-51.2-229.4Z"/>
      <path class="st0" d="M419.7,1116.8c85.6-57.9,128.3-130.3,111.8-216.8-16.6-86.5-145.5-179.5-292.4-70.2-67.2,50-102.3,104.1-120.7,148.2,25.2,115.8,96.4,229.5,235.2,282.1,2-45.2,14.9-108.7,66.2-143.4Z"/>
    </g>
    <path class="st1" d="M606.2,1431c-110.1,10.5-242.1,3.4-358.4-57.2-106.4-55.4-183-163.2-221.4-311.9C-23.6,869-.6,631.6,79.8,509.8c93.2-141.2,195.6-202.5,277.8-251.8,29.8-17.8,57.9-34.7,82.1-53.2,84.9-65.1,86.2-187.3,86.2-188.5,0-6.4,3.8-12.3,9.7-14.8,5.9-2.6,12.8-1.5,17.5,2.9,2.5,2.3,55.3,50.9,80.3,109.3,28.7-20.2,86.3-63.9,112.5-105,2.9-4.5,7.8-7.4,13.2-7.5,5.4-.2,10.5,2.3,13.7,6.7,2.3,3.1,51.8,71.7,51.4,131.6,33.7,7,120.1,28.1,216.1,76.8,161,81.6,270.7,202.4,317.2,349.2,117.7,371.6-23.4,628-431.5,783.8-8.3,3.7-101.4,44.8-229.1,69-27.7,5.3-58.2,9.9-90.6,13ZM555.2,53.3c-6.9,46.3-28.4,125.6-95.7,177.2-25.6,19.7-54.5,37-85.1,55.3-83.6,50.1-178.3,106.8-267.4,241.9-65.5,99.1-101.8,323-49.2,526.1,25.2,97.2,81.2,226.7,205,291.2,273.1,142.2,646.5-24.1,650.2-25.8.3-.1.6-.3.9-.4,389.1-148.5,524.1-391.8,412.5-743.8-44.4-140.1-145.3-251-300.1-329.6-116.5-59.2-221.2-76.8-222.3-76.9-4.3-.7-8.1-3.1-10.6-6.6-2.5-3.5-3.5-8-2.7-12.2,5.6-31.8-15.3-76.1-31.8-103.8-44.4,54.6-121.2,104.3-124.8,106.6-4.3,2.8-9.7,3.3-14.5,1.5-4.8-1.8-8.5-5.8-9.9-10.7-10-34.3-35.3-68-54.5-89.9Z"/>
    <path class="st1" d="M299.3,1044.3c-19.9-39.6-20.6-90.2,6.3-127.4,47.5-61.1,131.4-57.1,179.6.8,4.6,5.4,8.7,10.8,12.4,17.2,2,3.4.8,7.7-2.6,9.7-2.5,1.5-5.5,1.2-7.7-.4-37-27.1-84.4-46.7-125.5-21.7-42,22.9-48.2,72.8-49.2,118.5,0,7.2-10.3,9.6-13.5,3.2h0Z"/>
    <path class="st1" d="M874.7,807c-4.3-44.2,13.4-91.5,52-116.5,66.4-39.8,143.2-5.7,167.2,65.7,2.3,6.7,4.2,13.2,5.3,20.6.6,3.9-2,7.5-5.9,8.1-2.9.5-5.6-.9-7.1-3.1-24.7-38.7-61.8-74-109.2-65.6-47.4,6.2-71.3,50.4-88.7,92.7-2.6,6.7-13.1,5.2-13.7-1.9h0Z"/>
    <path class="st1" d="M696.2,932s-99.2-7.1-101.1-36.9c-1.8-29.8,119.5-70.4,140.3-59,20.8,11.5-39.2,95.9-39.2,95.9Z"/>
    <path class="st1" d="M608.4,1008c88.1,7,151.1-15.7,213.7-78.1,4.2-4.2,11.4.9,8.8,6.3-32.2,72.2-118.2,117.2-195.5,95.1-10.8-3.1-21.1-6.9-30.9-13.1-2.6-1.6-3.3-5-1.7-7.6,1.2-1.9,3.4-2.8,5.6-2.5h0Z"/>
    <path class="st1" d="M739.7,1023.5c-3.8.4-7.7-.6-11-2.9-27.2-19.4-46-77.1-48-83.6-2.7-8.6,2.1-17.7,10.6-20.4s17.7,2,20.4,10.6c6.5,20.6,22.1,57.1,35.9,67,7.3,5.2,9,15.4,3.8,22.7-2.8,4-7.2,6.3-11.7,6.7Z"/>
    <g class="st5">
      <path class="st2" d="M614.3,1009.7s67.6-11.5,74.9-20.7-5.1-55.7-2.4-57.5c2.7-1.8,20.2-7.9,20.2-7.9,0,0,20.1,33.9,45.6,38.2,25.6,4.3,66.5-14,66.5-14,0,0-39.4,50.8-106.7,67.1-67.4,16.3-98.1-5.2-98.1-5.2Z"/>
    </g>
    <g class="st4">
      <path class="st3" d="M595.2,895.1c1.2,4.7,30-.9,78.5-20.2,49.9-19.8,61.8-38.8,61.8-38.8,0,0-21.5-7.6-77.1,13.4-55.7,21-64.4,40.6-63.2,45.5Z"/>
    </g>
    <path class="st1" d="M697.8,948.2c-.9,0-1.8,0-2.7,0-34.1-2.4-113.7-12.4-116.1-52.1-.9-14.2,8.7-27.5,29.4-40.5,32.1-20.3,109.4-47.8,135-33.7,6.1,3.4,10.4,9.2,12,16.3,6,26.5-30,81-45.8,103.2-2.8,3.9-7,6.3-11.7,6.8ZM611.9,894.3c6.5,7.9,41.1,17.2,76.4,20.7,17.4-25.6,31.7-52.4,34.8-64.9-26-.2-101.4,27-111.1,44.2ZM728.4,850.8h0Z"/>
  </g>
  <g>
    <path class="st1" d="M6026.3,1040.5h-130.3l95.9-452.3h130.3l-11.8,56.1c26.5-22.3,47.3-37.1,62.4-44.3,15.7-7.8,31.4-11.8,47-11.8s33.8,6.6,45.2,19.9c11.5,12.7,17.2,28.6,17.2,47.9s-6,34.4-18.1,47c-12.1,12.7-27.7,19-47,19s-18.4-2.4-24.4-7.2c-5.4-4.8-9.4-14.8-11.8-29.8-1.8-9.6-3.9-15.7-6.3-18.1-2.4-3-5.7-4.5-9.9-4.5-10.3,0-19.9,2.1-28.9,6.3-9,4.2-21.4,13.6-37.1,28l-72.4,343.7Z"/>
    <path class="st1" d="M5914.3,666.9c0,50.1-20.5,93.8-61.5,131.2-41,36.8-89.9,56.7-146.5,59.7-.6,10.3-1.2,18.1-1.8,23.5v12.7c0,27.7,4.5,47.3,13.6,58.8,9.6,11.5,26.8,17.2,51.6,17.2s54.3-6.3,77.8-19c24.1-13.3,51.6-37.4,82.3-72.4h30.8c-35,56.7-73,98.9-114,126.6-41,27.1-85.9,40.7-134.8,40.7s-81.7-12.1-105.8-36.2c-23.5-24.1-35.3-60-35.3-107.6s5.4-70.9,16.3-109.4c10.9-38.6,25.3-73,43.4-103.1,22.3-36.2,48.8-63.3,79.6-81.4,31.4-18.7,66.3-28,104.9-28s57.9,7.2,74.2,21.7c16.9,13.9,25.3,35.6,25.3,65.1ZM5822,628c-20.5,0-41.3,18.4-62.4,55.2-20.5,36.2-35.9,79.9-46.1,131.2,35-2.4,65.4-18.4,91.4-47.9,26.5-30.2,39.8-63.9,39.8-101.3s-1.8-22-5.4-28c-3.6-6-9.4-9-17.2-9Z"/>
    <path class="st1" d="M5337.5,943.7c0-10.9,1.2-24.4,3.6-40.7,3-16.3,8.7-42.2,17.2-77.8,8.4-34.4,13.9-59.1,16.3-74.2,2.4-15.1,3.6-27.7,3.6-38,0-15.1-2.7-26.5-8.1-34.4-5.4-7.8-13.6-11.8-24.4-11.8s-28,7.5-40.7,22.6c-12.1,14.5-22,34.7-29.8,60.6l-61.5,290.4h-130.3l95.9-452.3h130.3l-9.9,47c15.1-16.9,31.4-29.5,48.8-38,17.5-8.4,36.5-12.7,57-12.7,32,0,56.7,8.7,74.2,26.2,17.5,17.5,26.2,42.8,26.2,76s-1.8,30.5-5.4,49.7c-3,18.7-9.4,47.6-19,86.8-7.8,30.8-13,52.5-15.4,65.1-2.4,12.7-3.6,23.2-3.6,31.7,0,12.7,3,22.3,9,28.9,6,6,15.1,9,27.1,9s28-5.1,38.9-15.4c10.9-10.3,23.2-31.7,37.1-64.2h38c-19.3,56.1-42.8,98-70.6,125.7-27.1,27.7-59.7,41.6-97.7,41.6s-60-9-78.7-27.1c-18.7-18.7-28-43.7-28-75.1Z"/>
    <path class="st1" d="M4880.8,943.7c0-10.9,1.2-24.4,3.6-40.7,3-16.3,8.7-42.2,17.2-77.8,8.4-34.4,13.9-59.1,16.3-74.2,2.4-15.1,3.6-27.7,3.6-38,0-15.1-2.7-26.5-8.1-34.4-5.4-7.8-13.6-11.8-24.4-11.8s-28,7.5-40.7,22.6c-12.1,14.5-22,34.7-29.8,60.6l-61.5,290.4h-130.3l95.9-452.3h130.3l-9.9,47c15.1-16.9,31.4-29.5,48.8-38,17.5-8.4,36.5-12.7,57-12.7,32,0,56.7,8.7,74.2,26.2,17.5,17.5,26.2,42.8,26.2,76s-1.8,30.5-5.4,49.7c-3,18.7-9.4,47.6-19,86.8-7.8,30.8-13,52.5-15.4,65.1-2.4,12.7-3.6,23.2-3.6,31.7,0,12.7,3,22.3,9,28.9,6,6,15.1,9,27.1,9s28-5.1,38.9-15.4c10.9-10.3,23.2-31.7,37.1-64.2h38c-19.3,56.1-42.8,98-70.6,125.7-27.1,27.7-59.7,41.6-97.7,41.6s-60-9-78.7-27.1c-18.7-18.7-28-43.7-28-75.1Z"/>
    <path class="st1" d="M4478.9,629.8v6.3l9.9-47.9h130.3l-65.1,307.5c-1.2,5.4-2.1,10.6-2.7,15.4-.6,4.2-.9,8.7-.9,13.6,0,13.3,3,23.2,9,29.8,6,6,15.4,9,28,9s29.8-7.2,42.5-21.7c12.7-15.1,22.9-36.2,30.8-63.3h38c-19.3,55.5-44.3,97.4-75.1,125.7-30.8,27.7-66.3,41.6-106.7,41.6s-46.7-7.2-62.4-21.7c-15.1-14.5-23.8-35-26.2-61.5-18.7,27.7-39.5,48.5-62.4,62.4-22.3,13.9-46.4,20.8-72.4,20.8-37.4,0-66.9-12.7-88.6-38-21.1-25.3-31.7-61.2-31.7-107.6s5.1-69,15.4-105.8c10.3-36.8,24.4-70.3,42.5-100.4,22.3-35.6,48.2-62.7,77.8-81.4,29.6-19.3,61.8-28.9,96.8-28.9s41.6,4.2,54.3,12.7c12.7,7.8,19,19,19,33.5ZM4470.7,674.1c0-9-3.3-16.9-9.9-23.5-6.6-7.2-15.7-10.9-27.1-10.9-33.2,0-62.7,27.7-88.6,83.2-25.3,55.5-38,110.4-38,164.6s3.3,41.3,9.9,53.4c6.6,11.5,18.4,17.2,35.3,17.2s30.8-7.5,45.2-22.6c15.1-15.1,25-34.1,29.8-57l43.4-204.4Z"/>
    <path class="st1" d="M3959.5,937.4c0-7.8.6-16.6,1.8-26.2,1.2-10.3,3-21.1,5.4-32.6l96.8-453.2,133.9-18.1-104,488.4c-1.2,5.4-2.1,10.6-2.7,15.4-.6,4.2-.9,8.7-.9,13.6,0,12.1,2.7,20.8,8.1,26.2,6,4.8,15.7,7.2,28.9,7.2s32.9-7.2,47.9-21.7c15.1-15.1,26.2-34.4,33.5-57.9h38c-19.3,54.9-45.2,96.5-77.8,124.8-32.6,28.3-70,42.5-112.2,42.5s-54-9.3-71.5-28c-16.9-19.3-25.3-46.1-25.3-80.5Z"/>
    <path class="st1" d="M3663.5,1040.5h-130.3l123-575.3,133.9-18.1-64.2,302.1c42.2-3.6,79-28.3,110.4-74.2,31.9-45.8,47.9-95.3,47.9-148.3s-9.9-68.7-29.8-90.5c-19.3-21.7-46.7-32.6-82.3-32.6-73.6,0-131.2,19.6-172.8,58.8-41,38.6-61.5,92.3-61.5,161s.6,21.4,1.8,29.8c1.8,8.4,4.5,16.6,8.1,24.4,1.2,2.4,1.8,4.2,1.8,5.4.6.6.9,1.2.9,1.8-33.8,0-58.5-6.9-74.2-20.8-15.1-14.5-22.6-36.8-22.6-66.9s9.9-60.3,29.8-90.5c20.5-30.2,48.8-57.3,85-81.4,30.8-19.9,63.6-35.3,98.6-46.1,35.6-11.5,70.2-17.2,104-17.2,66.3,0,118.5,16.3,156.5,48.8,38,32.6,57,75.7,57,129.3s-7.2,63.3-21.7,94.1c-13.9,30.8-33.5,57.6-58.8,80.5-24.1,22.3-51.6,39.2-82.3,50.7-30.8,11.5-63.6,17.2-98.6,17.2h-4.5l-55.2,257.8Z"/>
    <path class="st1" d="M3003.7,937.4c0-7.8.6-16.6,1.8-26.2,1.2-10.3,3-21.1,5.4-32.6l96.8-453.2,133.9-18.1-104,488.4c-1.2,5.4-2.1,10.6-2.7,15.4-.6,4.2-.9,8.7-.9,13.6,0,12.1,2.7,20.8,8.1,26.2,6,4.8,15.7,7.2,28.9,7.2s32.9-7.2,47.9-21.7c15.1-15.1,26.2-34.4,33.5-57.9h38c-19.3,54.9-45.2,96.5-77.8,124.8-32.6,28.3-70,42.5-112.2,42.5s-54-9.3-71.5-28c-16.9-19.3-25.3-46.1-25.3-80.5Z"/>
    <path class="st1" d="M2762.6,937.4c0-7.8.6-16.6,1.8-26.2,1.2-10.3,3-21.1,5.4-32.6l96.8-453.2,133.9-18.1-104,488.4c-1.2,5.4-2.1,10.6-2.7,15.4-.6,4.2-.9,8.7-.9,13.6,0,12.1,2.7,20.8,8.1,26.2,6,4.8,15.7,7.2,28.9,7.2s32.9-7.2,47.9-21.7c15.1-15.1,26.2-34.4,33.5-57.9h38c-19.3,54.9-45.2,96.5-77.8,124.8-32.6,28.3-69.9,42.5-112.2,42.5s-54-9.3-71.5-28c-16.9-19.3-25.3-46.1-25.3-80.5Z"/>
    <path class="st1" d="M2752.1,467.9c0,19.9-7.2,36.8-21.7,50.7-13.9,13.9-30.8,20.8-50.7,20.8s-36.8-6.9-50.7-20.8c-13.9-13.9-20.8-30.8-20.8-50.7s6.9-36.8,20.8-50.7c13.9-14.5,30.8-21.7,50.7-21.7s36.8,7.2,50.7,21.7c14.5,13.9,21.7,30.8,21.7,50.7ZM2521.4,937.4c0-7.8.6-16.6,1.8-26.2,1.2-10.3,3-21.1,5.4-32.6l61.5-290.4h130.3l-65.1,307.5c-1.2,5.4-2.1,10.6-2.7,15.4-.6,4.2-.9,8.7-.9,13.6,0,12.1,2.7,20.8,8.1,26.2,6,4.8,15.7,7.2,28.9,7.2s32.9-7.2,47.9-21.7c15.1-15.1,26.2-34.4,33.5-57.9h38c-19.3,54.9-45.2,96.5-77.8,124.8-32.6,28.3-69.9,42.5-112.2,42.5s-54-9.3-71.5-28c-16.9-19.3-25.3-46.1-25.3-80.5Z"/>
    <path class="st1" d="M2291.8,943.7c0-10.9,1.2-24.4,3.6-40.7,3-16.3,8.7-42.2,17.2-77.8,8.4-34.4,13.9-59.1,16.3-74.2,2.4-15.1,3.6-27.7,3.6-38,0-15.1-3-26.5-9-34.4-5.4-7.8-13.6-11.8-24.4-11.8s-28.6,8.7-42.5,26.2c-13.3,16.9-22,34.7-26.2,53.4l-62.4,294h-130.3l131.2-615.1,133.9-18.1-48.8,227.9c15.1-16.9,31.4-29.5,48.8-38,17.5-8.4,36.5-12.7,57-12.7,32,0,56.7,8.7,74.2,26.2,17.5,17.5,26.2,42.8,26.2,76s-1.8,30.5-5.4,49.7c-3,18.7-9.3,47.6-19,86.8-7.8,30.8-13,52.5-15.4,65.1-2.4,12.7-3.6,23.2-3.6,31.7,0,12.7,3,22.3,9,28.9,6,6,15.1,9,27.1,9s28-5.1,38.9-15.4c10.9-10.3,23.2-31.7,37.1-64.2h38c-19.3,56.1-42.8,98-70.6,125.7-27.1,27.7-59.7,41.6-97.7,41.6s-60-9-78.7-27.1c-18.7-18.7-28-43.7-28-75.1Z"/>
    <path class="st1" d="M1789.7,827c0,50.1,8.7,86.2,26.2,108.5,17.5,21.7,44.9,32.6,82.3,32.6s66.9-7.8,97.7-23.5c31.4-16.3,57.6-38.6,78.7-66.9l20.8,9c-19.9,51.3-54.6,92.3-104,123-48.8,30.2-100.1,45.2-153.8,45.2s-120.6-17.5-152-52.5c-30.8-35.6-46.1-92.3-46.1-170.1s6.3-102.2,19-156.5c12.7-54.3,30.2-102.8,52.5-145.6,28.9-54.9,63.9-96.5,104.9-124.8,41.6-28.9,88-43.4,139.3-43.4s85.3,10.6,111.3,31.7c26.5,20.5,39.8,50.4,39.8,89.5s-5.4,47.9-16.3,62.4c-10.9,13.9-26.5,20.8-47,20.8s-19.9-1.8-28.9-5.4c-8.4-4.2-16-10.3-22.6-18.1,10.9-5.4,20.5-16.3,28.9-32.6,8.4-16.9,12.7-33.8,12.7-50.7s-4.8-31.1-14.5-40.7c-9.6-9.6-23.2-14.5-40.7-14.5-26.5,0-52.8,16.3-78.7,48.8-25.9,32-48.5,76.3-67.8,133-13.3,38.6-23.5,79-30.8,121.2-7.2,41.6-10.9,81.4-10.9,119.4Z"/>
  </g>
</svg>